HIERARCHY
ROOT Hips
{
    OFFSET   0.000000   0.000000   0.000000
    CHANNELS 6 Xposition Yposition Zposition Zrotation Xrotation Yrotation
    JOINT Chest
    {
        OFFSET   0.000000   8.007230   0.000000
        CHANNELS 3 Zrotation Xrotation Yrotation
        JOINT Chest2
        {
            OFFSET   0.000000  22.077100   0.000000
            CHANNELS 3 Zrotation Xrotation Yrotation
            JOINT Neck
            {
                OFFSET   0.000000  23.255100   0.000000
                CHANNELS 3 Zrotation Xrotation Yrotation
                JOINT Head
                {
                    OFFSET   0.000000  14.370100   1.956600
                    CHANNELS 3 Zrotation Xrotation Yrotation
                    End Site
                    {
                        OFFSET   0.000000  19.566000   0.000000
                    }
                }
            }
            JOINT LeftCollar
            {
                OFFSET   3.911900  19.017000  -0.467063
                CHANNELS 3 Zrotation Xrotation Yrotation
                JOINT LeftShoulder
                {
                    OFFSET  10.383700   0.000000   0.000000
                    CHANNELS 3 Zrotation Xrotation Yrotation
                    JOINT LeftElbow
                    {
                        OFFSET  26.662100   0.001193   0.000980
                        CHANNELS 3 Zrotation Xrotation Yrotation
                        JOINT LeftWrist
                        {
                            OFFSET  28.869000  -0.000059  -0.000082
                            CHANNELS 3 Zrotation Xrotation Yrotation
                            JOINT LeftFinger0
                            {
                                OFFSET   2.044650  -2.323450   3.252850
                                CHANNELS 3 Zrotation Xrotation Yrotation
                                JOINT LeftFinger01
                                {
                                    OFFSET   3.088130   0.000000   0.000000
                                    CHANNELS 3 Zrotation Xrotation Yrotation
                                    JOINT LeftFinger02
                                    {
                                        OFFSET   2.639460   0.000000   0.000000
                                        CHANNELS 3 Zrotation Xrotation Yrotation
                                        End Site
                                        {
                                            OFFSET   2.582190   0.000000   0.000000
                                        }
                                    }
                                }
                            }
                            JOINT LeftFinger1
                            {
                                OFFSET   8.364480   0.000000   3.252850
                                CHANNELS 3 Zrotation Xrotation Yrotation
                                JOINT LeftFinger11
                                {
                                    OFFSET   4.646930   0.000000   0.000000
                                    CHANNELS 3 Zrotation Xrotation Yrotation
                                    JOINT LeftFinger12
                                    {
                                        OFFSET   2.323470   0.000000   0.000000
                                        CHANNELS 3 Zrotation Xrotation Yrotation
                                        End Site
                                        {
                                            OFFSET   2.273050   0.000000   0.000000
                                        }
                                    }
                                }
                            }
                            JOINT LeftFinger2
                            {
                                OFFSET   8.364490   0.000016   1.078090
                                CHANNELS 3 Zrotation Xrotation Yrotation
                                JOINT LeftFinger21
                                {
                                    OFFSET   5.111610   0.000000   0.000000
                                    CHANNELS 3 Zrotation Xrotation Yrotation
                                    JOINT LeftFinger22
                                    {
                                        OFFSET   2.788150   0.000016   0.000000
                                        CHANNELS 3 Zrotation Xrotation Yrotation
                                        End Site
                                        {
                                            OFFSET   2.727660   0.000000   0.000000
                                        }
                                    }
                                }
                            }
                            JOINT LeftFinger3
                            {
                                OFFSET   7.899780   0.000015  -1.078090
                                CHANNELS 3 Zrotation Xrotation Yrotation
                                JOINT LeftFinger31
                                {
                                    OFFSET   4.646930   0.000000   0.000000
                                    CHANNELS 3 Zrotation Xrotation Yrotation
                                    JOINT LeftFinger32
                                    {
                                        OFFSET   2.323470   0.000000   0.000000
                                        CHANNELS 3 Zrotation Xrotation Yrotation
                                        End Site
                                        {
                                            OFFSET   2.273050   0.000000   0.000000
                                        }
                                    }
                                }
                            }
                            JOINT LeftFinger4
                            {
                                OFFSET   7.435090   0.000000  -3.252850
                                CHANNELS 3 Zrotation Xrotation Yrotation
                                JOINT LeftFinger41
                                {
                                    OFFSET   3.717550   0.000000   0.000000
                                    CHANNELS 3 Zrotation Xrotation Yrotation
                                    JOINT LeftFinger42
                                    {
                                        OFFSET   1.858770   0.000000   0.000000
                                        CHANNELS 3 Zrotation Xrotation Yrotation
                                        End Site
                                        {
                                            OFFSET   1.818440   0.000000   0.000000
                                        }
                                    }
                                }
                            }
                        }
                    }
                }
            }
            JOINT RightCollar
            {
                OFFSET  -3.911910  19.017000  -0.467062
                CHANNELS 3 Zrotation Xrotation Yrotation
                JOINT RightShoulder
                {
                    OFFSET -10.383700   0.000014   0.000000
                    CHANNELS 3 Zrotation Xrotation Yrotation
                    JOINT RightElbow
                    {
                        OFFSET -26.662100   0.001225   0.001091
                        CHANNELS 3 Zrotation Xrotation Yrotation
                        JOINT RightWrist
                        {
                            OFFSET -28.869000  -0.000020  -0.000085
                            CHANNELS 3 Zrotation Xrotation Yrotation
                            JOINT RightFinger0
                            {
                                OFFSET  -2.044650  -2.323490   3.252850
                                CHANNELS 3 Zrotation Xrotation Yrotation
                                JOINT RightFinger01
                                {
                                    OFFSET  -3.088130   0.000000   0.000000
                                    CHANNELS 3 Zrotation Xrotation Yrotation
                                    JOINT RightFinger02
                                    {
                                        OFFSET  -2.639460   0.000000   0.000000
                                        CHANNELS 3 Zrotation Xrotation Yrotation
                                        End Site
                                        {
                                            OFFSET  -2.582190   0.000000   0.000000
                                        }
                                    }
                                }
                            }
                            JOINT RightFinger1
                            {
                                OFFSET  -8.364480   0.000000   3.252850
                                CHANNELS 3 Zrotation Xrotation Yrotation
                                JOINT RightFinger11
                                {
                                    OFFSET  -4.646930   0.000000   0.000000
                                    CHANNELS 3 Zrotation Xrotation Yrotation
                                    JOINT RightFinger12
                                    {
                                        OFFSET  -2.323470   0.000000   0.000000
                                        CHANNELS 3 Zrotation Xrotation Yrotation
                                        End Site
                                        {
                                            OFFSET  -2.273050   0.000000   0.000000
                                        }
                                    }
                                }
                            }
                            JOINT RightFinger2
                            {
                                OFFSET  -8.364480   0.000000   1.078090
                                CHANNELS 3 Zrotation Xrotation Yrotation
                                JOINT RightFinger21
                                {
                                    OFFSET  -5.111620   0.000000   0.000000
                                    CHANNELS 3 Zrotation Xrotation Yrotation
                                    JOINT RightFinger22
                                    {
                                        OFFSET  -2.788160   0.000000   0.000000
                                        CHANNELS 3 Zrotation Xrotation Yrotation
                                        End Site
                                        {
                                            OFFSET  -2.727660   0.000000   0.000000
                                        }
                                    }
                                }
                            }
                            JOINT RightFinger3
                            {
                                OFFSET  -7.899780   0.000000  -1.078090
                                CHANNELS 3 Zrotation Xrotation Yrotation
                                JOINT RightFinger31
                                {
                                    OFFSET  -4.646930   0.000000   0.000000
                                    CHANNELS 3 Zrotation Xrotation Yrotation
                                    JOINT RightFinger32
                                    {
                                        OFFSET  -2.323470   0.000000   0.000000
                                        CHANNELS 3 Zrotation Xrotation Yrotation
                                        End Site
                                        {
                                            OFFSET  -2.273050   0.000000   0.000000
                                        }
                                    }
                                }
                            }
                            JOINT RightFinger4
                            {
                                OFFSET  -7.435090   0.000000  -3.252850
                                CHANNELS 3 Zrotation Xrotation Yrotation
                                JOINT RightFinger41
                                {
                                    OFFSET  -3.717550   0.000000   0.000000
                                    CHANNELS 3 Zrotation Xrotation Yrotation
                                    JOINT RightFinger42
                                    {
                                        OFFSET  -1.858760   0.000000   0.000000
                                        CHANNELS 3 Zrotation Xrotation Yrotation
                                        End Site
                                        {
                                            OFFSET  -1.818440   0.000000   0.000000
                                        }
                                    }
                                }
                            }
                        }
                    }
                }
            }
        }
    }
    JOINT LeftHip
    {
        OFFSET   9.783030   0.000000   0.000000
        CHANNELS 3 Zrotation Xrotation Yrotation
        JOINT LeftKnee
        {
            OFFSET   0.000063 -41.789100   0.000608
            CHANNELS 3 Zrotation Xrotation Yrotation
            JOINT LeftAnkle
            {
                OFFSET   0.000048 -41.133200  -0.000184
                CHANNELS 3 Zrotation Xrotation Yrotation
                JOINT LeftToe
                {
                    OFFSET   0.000000  -6.358960  14.674500
                    CHANNELS 3 Zrotation Xrotation Yrotation
                    End Site
                    {
                        OFFSET   0.000000   0.000000   3.913200
                    }
                }
            }
        }
    }
    JOINT RightHip
    {
        OFFSET  -9.783030   0.000000   0.000000
        CHANNELS 3 Zrotation Xrotation Yrotation
        JOINT RightKnee
        {
            OFFSET   0.000071 -41.789100   0.001239
            CHANNELS 3 Zrotation Xrotation Yrotation
            JOINT RightAnkle
            {
                OFFSET   0.000037 -41.133200  -0.000166
                CHANNELS 3 Zrotation Xrotation Yrotation
                JOINT RightToe
                {
                    OFFSET   0.000000  -6.358960  14.674500
                    CHANNELS 3 Zrotation Xrotation Yrotation
                    End Site
                    {
                        OFFSET   0.000000   0.000000   3.913200
                    }
                }
            }
        }
    }
}
MOTION
Frames: 4
Frame Time:   0.016667
  3.323200  89.498900   2.046890  -2.211710  -7.126970   1.231580   0.510495   4.594440  -0.402686   1.058620   9.185020  -0.850699   0.872657   0.140324  -0.011000   1.438030   0.284152   0.783285  -4.307870   0.222155   2.983710 -72.801600  18.454000  -3.347500  -1.645320  -4.025400 -17.595800  19.043600  -6.099480   2.114940  37.250500  28.659500 -59.657300 -31.313400   0.002879   0.006443 -10.672400   0.001819   0.001141 -36.861300   7.169970  -9.450400 -30.647000   0.002085   0.001133 -21.461000   0.001463  -0.004409 -30.250600  -0.116776   0.208471 -45.358300   0.004191   0.002462 -30.220700   0.001806   0.002798 -29.985200  -0.115884   0.209017 -44.977800   0.003196   0.005682 -29.955400   0.002098   0.000222 -37.502800  -0.381894   0.497621 -56.255100   0.002106  -0.001289 -37.466900  -0.015483  -0.000000  10.882200   1.876460   5.930700  66.875000  13.263800  -0.769617  -3.495790  -2.827690  16.112500 -11.401000   0.300519   3.989800 -42.042100  37.463900  71.955200  29.799300  -0.001936  -0.002512   9.899200   0.000000  -0.002840  29.862400  10.257900  17.228000  25.707100   0.001373  -0.010566  17.995000  -0.003662  -0.002237  28.369200   5.090620   9.319680  41.689200  -0.003314  -0.002503  27.765000  -0.002744  -0.001617  27.867100   4.577250   8.575690  33.506700  -0.003282  -0.003652  22.315400  -0.002958  -0.001423  31.997500   0.878555   1.416500  48.012500  -0.002025  -0.001441  31.976300  -0.001685  -0.005425   1.426040   9.850570   2.050600   0.561810   0.404249   3.981540  -1.015740  -3.965630   0.501361   0.000000   0.000000   0.000000   0.684048   9.838450  -2.061690  -0.270394   0.763536  -6.723860   0.826931  -3.881900  -0.759329   0.000000   0.000000   0.000000
  3.323270  89.499200   2.041650  -2.211260  -7.136220   1.232750   0.512234   4.600580  -0.402899   1.062200   9.197270  -0.851336   0.872330   0.150159  -0.010987   1.437390   0.304112   0.783324  -4.308240   0.221990   2.983560 -72.807300  18.463100  -3.347660  -1.646500  -4.028990 -17.595900  19.047000  -6.099500   2.108940  37.253900  28.657500 -59.654900 -31.313400   0.002866   0.006448 -10.672400   0.001812   0.001143 -36.861400   7.169620  -9.450030 -30.646800   0.002095   0.001123 -21.461000   0.001466  -0.004410 -30.250600  -0.117010   0.204773 -45.358000   0.004235   0.002477 -30.220700   0.001833   0.002809 -29.985000  -0.116119   0.205309 -44.974400   0.003209   0.005685 -29.955200   0.002105   0.000245 -37.502700  -0.381803   0.497504 -56.250400   0.002113  -0.001276 -37.466800  -0.015498   0.000033  10.882200   1.876360   5.930610  66.871700  13.263800  -0.776729  -3.491050  -2.827110  16.112700 -11.399900   0.289346   3.999090 -42.044700  37.467300  71.963600  29.795700  -0.001942  -0.002520   9.897610   0.000000  -0.002842  29.859400  10.257600  17.232000  25.705100   0.001374  -0.010575  17.993600  -0.003656  -0.002236  28.369100   5.090630   9.319740  41.688500  -0.003305  -0.002500  27.764500  -0.002740  -0.001605  27.867000   4.577260   8.575730  33.504700  -0.003280  -0.003642  22.314100  -0.002955  -0.001421  31.997500   0.878522   1.416480  48.012500  -0.002025  -0.001434  31.976300  -0.001673  -0.005417   1.426270   9.833000   2.051410   0.562535   0.452645   3.989210  -1.019330  -3.981660   0.491373   0.000000   0.000000  -0.000000   0.687976   9.873330  -2.061920  -0.269554   0.732711  -6.723740   0.826916  -3.880540  -0.759409   0.000000   0.000000   0.000000
  3.323340  89.499600   2.033000  -2.210440  -7.150690   1.235370   0.515462   4.610250  -0.403254   1.068810   9.216560  -0.852418   0.872005   0.168678  -0.010960   1.436520   0.341711   0.783365  -4.308600   0.221733   2.983410 -72.817300  18.478000  -3.347940  -1.648640  -4.035440 -17.596100  19.053600  -6.099550   2.099140  37.256900  28.654100 -59.651100 -31.313400   0.002838   0.006477 -10.672500   0.001780   0.001147 -36.861500   7.169270  -9.449670 -30.646500   0.002117   0.001100 -21.460800   0.001478  -0.004411 -30.250600  -0.117244   0.199148 -45.357700   0.004346   0.002514 -30.220700   0.001901   0.002839 -29.984800  -0.116354   0.199669 -44.971100   0.003241   0.005693 -29.955000   0.002124   0.000305 -37.502700  -0.381711   0.497387 -56.245700   0.002129  -0.001243 -37.466800  -0.015540   0.000096  10.882200   1.876270   5.930420  66.865200  13.263900  -0.786353  -3.483850  -2.826520  16.113000 -11.398900   0.278171   4.011960 -42.047300  37.470600  71.971900  29.788200  -0.001949  -0.002529   9.894110   0.000000  -0.002844  29.852400  10.257100  17.238700  25.700000   0.001375  -0.010598  17.990000  -0.003643  -0.002232  28.369200   5.090660   9.319840  41.683300  -0.003287  -0.002487  27.761100  -0.002730  -0.001570  27.867000   4.577280   8.575810  33.500100  -0.003271  -0.003619  22.311100  -0.002946  -0.001413  31.997500   0.878443   1.416450  48.012500  -0.002023  -0.001405  31.976300  -0.001638  -0.005404   1.426180   9.815420   2.054150   0.563233   0.501038   3.998440  -1.025000  -3.997690   0.475315  -0.000000   0.000000  -0.000000   0.694546   9.908210  -2.062170  -0.268714   0.701886  -6.723630   0.826749  -3.877630  -0.759561   0.000000   0.000000   0.000000
  3.320270  89.500100   2.026270  -2.209550  -7.160060   1.239410   0.518811   4.616530  -0.403606   1.075640   9.229100  -0.853551   0.873710   0.188038  -0.010927   1.437510   0.381109   0.782631  -4.306160   0.221529   2.984540 -72.825900  18.487200  -3.352500  -1.650460  -4.040700 -17.596300  19.062000  -6.105820   2.092070  37.254100  28.648800 -59.650200 -31.313400   0.002799   0.006547 -10.672600   0.001711   0.001147 -36.863900   7.171550  -9.452120 -30.648000   0.002143   0.001070 -21.460700   0.001502  -0.004405 -30.250600  -0.115630   0.196626 -45.359500   0.004517   0.002576 -30.220700   0.002004   0.002886 -29.985300  -0.114748   0.197138 -44.975000   0.003287   0.005705 -29.955500   0.002156   0.000396 -37.502900  -0.381745   0.497429 -56.250800   0.002156  -0.001194 -37.467000  -0.015607   0.000159  10.886900   1.876350   5.930150  66.856800  13.263800  -0.789293  -3.478190  -2.829060  16.113100 -11.400300   0.280050   4.016980 -42.058600  37.466700  71.961200  29.776200  -0.001939  -0.002513   9.888850   0.000000  -0.002842  29.839300  10.256700  17.244700  25.689800   0.001369  -0.010630  17.982900  -0.003630  -0.002218  28.369200   5.090710   9.319980  41.665900  -0.003265  -0.002457  27.749500  -0.002712  -0.001515  27.866900   4.577310   8.575930  33.491500  -0.003254  -0.003591  22.305300  -0.002930  -0.001394  31.990900   0.878321   1.416460  48.002600  -0.002012  -0.001344  31.969700  -0.001582  -0.005392   1.428460   9.840180   2.060040   0.563127   0.457082   3.999440  -1.028710  -3.973220   0.463904  -0.000000   0.000000   0.000000   0.700729   9.903440  -2.062350  -0.268893   0.710452  -6.725240   0.825222  -3.873170  -0.759748   0.000000   0.000000  -0.000000
